<?xml version="1.0" encoding="UTF-8" standalone="no"?>
<!-- Created with Inkscape (http://www.inkscape.org/) -->

<svg
   xmlns:dc="http://purl.org/dc/elements/1.1/"
   xmlns:cc="http://creativecommons.org/ns#"
   xmlns:rdf="http://www.w3.org/1999/02/22-rdf-syntax-ns#"
   xmlns:svg="http://www.w3.org/2000/svg"
   xmlns="http://www.w3.org/2000/svg"
   xmlns:sodipodi="http://sodipodi.sourceforge.net/DTD/sodipodi-0.dtd"
   xmlns:inkscape="http://www.inkscape.org/namespaces/inkscape"
   width="718.51172"
   height="716.21875"
   id="svg2"
   version="1.1"
   inkscape:version="0.48.2 r9819"
   sodipodi:docname="AJAX.svg">
  <defs
     id="defs4">
    <inkscape:perspective
       sodipodi:type="inkscape:persp3d"
       inkscape:vp_x="0 : 526.18109 : 1"
       inkscape:vp_y="0 : 1000 : 0"
       inkscape:vp_z="744.09448 : 526.18109 : 1"
       inkscape:persp3d-origin="372.04724 : 350.78739 : 1"
       id="perspective10" />
    <inkscape:perspective
       id="perspective2824"
       inkscape:persp3d-origin="0.5 : 0.33333333 : 1"
       inkscape:vp_z="1 : 0.5 : 1"
       inkscape:vp_y="0 : 1000 : 0"
       inkscape:vp_x="0 : 0.5 : 1"
       sodipodi:type="inkscape:persp3d" />
    <inkscape:perspective
       id="perspective2837"
       inkscape:persp3d-origin="350 : 100 : 1"
       inkscape:vp_z="700 : 150 : 1"
       inkscape:vp_y="0 : 1000 : 0"
       inkscape:vp_x="0 : 150 : 1"
       sodipodi:type="inkscape:persp3d" />
    <inkscape:perspective
       id="perspective5075"
       inkscape:persp3d-origin="375 : 250 : 1"
       inkscape:vp_z="750 : 375 : 1"
       inkscape:vp_y="0 : 1000 : 0"
       inkscape:vp_x="0 : 375 : 1"
       sodipodi:type="inkscape:persp3d" />
    <inkscape:perspective
       id="perspective5092"
       inkscape:persp3d-origin="0.5 : 0.33333333 : 1"
       inkscape:vp_z="1 : 0.5 : 1"
       inkscape:vp_y="0 : 1000 : 0"
       inkscape:vp_x="0 : 0.5 : 1"
       sodipodi:type="inkscape:persp3d" />
    <inkscape:perspective
       id="perspective5195"
       inkscape:persp3d-origin="0.5 : 0.33333333 : 1"
       inkscape:vp_z="1 : 0.5 : 1"
       inkscape:vp_y="0 : 1000 : 0"
       inkscape:vp_x="0 : 0.5 : 1"
       sodipodi:type="inkscape:persp3d" />
    <inkscape:perspective
       id="perspective5256"
       inkscape:persp3d-origin="0.5 : 0.33333333 : 1"
       inkscape:vp_z="1 : 0.5 : 1"
       inkscape:vp_y="0 : 1000 : 0"
       inkscape:vp_x="0 : 0.5 : 1"
       sodipodi:type="inkscape:persp3d" />
    <inkscape:perspective
       id="perspective8873"
       inkscape:persp3d-origin="0.5 : 0.33333333 : 1"
       inkscape:vp_z="1 : 0.5 : 1"
       inkscape:vp_y="0 : 1000 : 0"
       inkscape:vp_x="0 : 0.5 : 1"
       sodipodi:type="inkscape:persp3d" />
    <inkscape:perspective
       id="perspective8955"
       inkscape:persp3d-origin="0.5 : 0.33333333 : 1"
       inkscape:vp_z="1 : 0.5 : 1"
       inkscape:vp_y="0 : 1000 : 0"
       inkscape:vp_x="0 : 0.5 : 1"
       sodipodi:type="inkscape:persp3d" />
    <inkscape:perspective
       id="perspective10612"
       inkscape:persp3d-origin="0.5 : 0.33333333 : 1"
       inkscape:vp_z="1 : 0.5 : 1"
       inkscape:vp_y="0 : 1000 : 0"
       inkscape:vp_x="0 : 0.5 : 1"
       sodipodi:type="inkscape:persp3d" />
    <inkscape:perspective
       id="perspective11219"
       inkscape:persp3d-origin="0.5 : 0.33333333 : 1"
       inkscape:vp_z="1 : 0.5 : 1"
       inkscape:vp_y="0 : 1000 : 0"
       inkscape:vp_x="0 : 0.5 : 1"
       sodipodi:type="inkscape:persp3d" />
    <inkscape:perspective
       id="perspective11550"
       inkscape:persp3d-origin="0.5 : 0.33333333 : 1"
       inkscape:vp_z="1 : 0.5 : 1"
       inkscape:vp_y="0 : 1000 : 0"
       inkscape:vp_x="0 : 0.5 : 1"
       sodipodi:type="inkscape:persp3d" />
    <inkscape:perspective
       inkscape:vp_x="0 : 362.5 : 1"
       inkscape:vp_y="0 : 1000 : 0"
       inkscape:vp_z="725 : 362.5 : 1"
       inkscape:persp3d-origin="362.5 : 241.66667 : 1"
       sodipodi:type="inkscape:persp3d"
       id="perspective11" />
    <inkscape:perspective
       inkscape:vp_x="0 : 0.5 : 1"
       inkscape:vp_y="0 : 1000 : 0"
       inkscape:vp_z="1 : 0.5 : 1"
       inkscape:persp3d-origin="0.5 : 0.33333333 : 1"
       sodipodi:type="inkscape:persp3d"
       id="perspective7064" />
    <inkscape:perspective
       inkscape:vp_x="0 : 0.5 : 1"
       inkscape:vp_y="0 : 1000 : 0"
       inkscape:vp_z="1 : 0.5 : 1"
       inkscape:persp3d-origin="0.5 : 0.33333333 : 1"
       sodipodi:type="inkscape:persp3d"
       id="perspective3631" />
    <inkscape:perspective
       inkscape:vp_x="0 : 0.5 : 1"
       inkscape:vp_y="0 : 1000 : 0"
       inkscape:vp_z="1 : 0.5 : 1"
       inkscape:persp3d-origin="0.5 : 0.33333333 : 1"
       sodipodi:type="inkscape:persp3d"
       id="perspective3668" />
    <inkscape:perspective
       inkscape:vp_x="0 : 0.5 : 1"
       inkscape:vp_y="0 : 1000 : 0"
       inkscape:vp_z="1 : 0.5 : 1"
       inkscape:persp3d-origin="0.5 : 0.33333333 : 1"
       sodipodi:type="inkscape:persp3d"
       id="perspective3692" />
    <inkscape:perspective
       id="perspective11865"
       inkscape:persp3d-origin="0.5 : 0.33333333 : 1"
       inkscape:vp_z="1 : 0.5 : 1"
       inkscape:vp_y="0 : 1000 : 0"
       inkscape:vp_x="0 : 0.5 : 1"
       sodipodi:type="inkscape:persp3d" />
    <inkscape:perspective
       inkscape:vp_x="0 : 362.5 : 1"
       inkscape:vp_y="0 : 1000 : 0"
       inkscape:vp_z="725 : 362.5 : 1"
       inkscape:persp3d-origin="362.5 : 241.66667 : 1"
       sodipodi:type="inkscape:persp3d"
       id="perspective11-1" />
    <inkscape:perspective
       inkscape:vp_x="0 : 0.5 : 1"
       inkscape:vp_y="0 : 1000 : 0"
       inkscape:vp_z="1 : 0.5 : 1"
       inkscape:persp3d-origin="0.5 : 0.33333333 : 1"
       sodipodi:type="inkscape:persp3d"
       id="perspective7064-8" />
    <inkscape:perspective
       inkscape:vp_x="0 : 362.5 : 1"
       inkscape:vp_y="0 : 1000 : 0"
       inkscape:vp_z="725 : 362.5 : 1"
       inkscape:persp3d-origin="362.5 : 241.66667 : 1"
       sodipodi:type="inkscape:persp3d"
       id="perspective11-2" />
    <inkscape:perspective
       inkscape:vp_x="0 : 0.5 : 1"
       inkscape:vp_y="0 : 1000 : 0"
       inkscape:vp_z="1 : 0.5 : 1"
       inkscape:persp3d-origin="0.5 : 0.33333333 : 1"
       sodipodi:type="inkscape:persp3d"
       id="perspective7064-5" />
    <inkscape:perspective
       inkscape:vp_x="0 : 0.5 : 1"
       inkscape:vp_y="0 : 1000 : 0"
       inkscape:vp_z="1 : 0.5 : 1"
       inkscape:persp3d-origin="0.5 : 0.33333333 : 1"
       sodipodi:type="inkscape:persp3d"
       id="perspective3631-8" />
    <inkscape:perspective
       id="perspective12021"
       inkscape:persp3d-origin="0.5 : 0.33333333 : 1"
       inkscape:vp_z="1 : 0.5 : 1"
       inkscape:vp_y="0 : 1000 : 0"
       inkscape:vp_x="0 : 0.5 : 1"
       sodipodi:type="inkscape:persp3d" />
    <inkscape:perspective
       id="perspective12076"
       inkscape:persp3d-origin="0.5 : 0.33333333 : 1"
       inkscape:vp_z="1 : 0.5 : 1"
       inkscape:vp_y="0 : 1000 : 0"
       inkscape:vp_x="0 : 0.5 : 1"
       sodipodi:type="inkscape:persp3d" />
    <inkscape:perspective
       id="perspective12119"
       inkscape:persp3d-origin="0.5 : 0.33333333 : 1"
       inkscape:vp_z="1 : 0.5 : 1"
       inkscape:vp_y="0 : 1000 : 0"
       inkscape:vp_x="0 : 0.5 : 1"
       sodipodi:type="inkscape:persp3d" />
  </defs>
  <sodipodi:namedview
     id="base"
     pagecolor="#ffffff"
     bordercolor="#666666"
     borderopacity="1.0"
     inkscape:pageopacity="0.0"
     inkscape:pageshadow="2"
     inkscape:zoom="0.9287102"
     inkscape:cx="418.30996"
     inkscape:cy="283.69152"
     inkscape:document-units="px"
     inkscape:current-layer="layer1"
     showgrid="false"
     inkscape:window-width="1280"
     inkscape:window-height="1004"
     inkscape:window-x="-8"
     inkscape:window-y="-8"
     inkscape:window-maximized="1"
     fit-margin-top="0"
     fit-margin-left="0"
     fit-margin-right="0"
     fit-margin-bottom="0" />
  <metadata
     id="metadata7">
    <rdf:RDF>
      <cc:Work
         rdf:about="">
        <dc:format>image/svg+xml</dc:format>
        <dc:type
           rdf:resource="http://purl.org/dc/dcmitype/StillImage" />
        <dc:title />
      </cc:Work>
    </rdf:RDF>
  </metadata>
  <g
     inkscape:label="Livello 1"
     inkscape:groupmode="layer"
     id="layer1"
     transform="translate(1576.8619,-796.62734)">
    <g
       id="g5337"
       transform="matrix(15.996788,0,0,-15.996788,-858.35014,1154.9234)">
      <path
         d="m 0,0 0,0.627 -0.038,0.627 c -2.689,28.192 -42.141,28.192 -44.859,0 l -0.019,-0.627 0,-0.627 c 1.137,-28.653 41.288,-30.33 44.84,-1.882 L -0.038,-1.255 0,-0.627"
         style="fill:#d40000;fill-opacity:1;fill-rule:nonzero;stroke:none"
         id="path5339"
         inkscape:connector-curvature="0" />
    </g>
    <g
       id="g5341"
       transform="matrix(15.996788,0,0,-15.996788,-930.11173,1163.7536)">
      <path
         d="m 0,0 -0.038,-0.57 c -0.23,-3.441 -1.377,-6.653 -3.402,-9.447 l -0.323,-0.456 -25.243,25.224 0.456,0.342 C -16.733,23.496 -0.63,15.617 0,1.122 l 0,-0.57"
         style="fill:#ffffff;fill-opacity:1;fill-rule:nonzero;stroke:none"
         id="path5343"
         inkscape:connector-curvature="0" />
    </g>
    <g
       id="g5345"
       transform="matrix(15.996788,0,0,-15.996788,-1499.9173,1100.8056)">
      <path
         d="m 0,0 -0.095,-0.57 c -2.344,-15.891 15.189,-26.651 28.303,-17.354 l 0.456,0.342 L 3.441,7.641 3.117,7.185 C 1.816,5.43 0.753,3.21 0.247,1.084 L 0.114,0.551"
         style="fill:#ffffff;fill-opacity:1;fill-rule:nonzero;stroke:none"
         id="path5347"
         inkscape:connector-curvature="0" />
    </g>
    <g
       id="g5349"
       transform="matrix(15.996788,0,0,-15.996788,-1189.1317,1144.7174)">
      <path
         d="m 0,0 -0.277,0.983 -0.092,0.861 0.031,1.076 0.031,0.86 0.153,0.646 0.123,0.215 L 0.123,4.58 0.891,3.319 1.414,2.551 2.09,1.66 2.797,0.83 3.903,0.461 4.979,0.338 5.778,0.215 6.27,0.307 6.639,0.676 6.762,1.014 6.608,1.414 6.147,1.567 5.195,1.66 4.702,2.213 4.026,2.889 3.412,3.657 2.92,4.487 2.551,5.563 2.182,7.069 1.783,7.93 1.199,8.667 0.492,9.344 0.184,9.958 c -0.336,0.545 0.282,1.103 0.616,1.445 l 0.337,0.307 0.247,0.83 0.061,0.461 -0.277,0.891 -0.676,0.523 -0.922,0.092 -0.646,0 -1.106,-0.737 -0.092,-0.646 0,-0.43 0.122,-0.646 0.123,-0.399 c 0.662,-1.31 0.358,-1.176 -1.106,-1.783 L -3.873,9.589 -4.457,9.374 -5.194,8.944 -5.871,8.421 -6.608,7.807 -7.161,7.1 -7.807,6.147 -8.514,4.149 -8.698,3.412 -8.76,2.705 -8.821,2.151 -8.852,1.567 -8.883,1.014 l 0.185,-0.768 0.215,-0.123 0.338,-0.492 0.246,-0.184 0.276,-0.123 0.216,0.03 0.092,0.461 c -0.672,2.232 0.212,4.445 1.598,6.178 l 0.307,0.093 0.093,-0.308 0.03,-0.737 C -5.421,2.062 -5.881,1.145 -6.455,-1.506 L -7.192,-2.92 c -1.159,-2.101 -2.609,-4.044 -4.334,-5.717 l -0.369,-0.246 -0.154,-0.154 0.339,-0.891 0.276,-0.338 0.369,-0.522 0.246,-0.4 0.277,-0.4 0.215,-0.338 0.184,-0.307 0.338,-0.154 0.277,0.062 0.154,0.246 0.03,0.584 -0.092,0.645 -0.277,0.891 0.062,0.554 0.277,0.399 0.522,0.585 0.615,0.675 0.553,0.431 0.43,0.461 0.461,0.553 0.492,0.584 0.707,0.861 0.553,0.584 0.461,0.553 0.492,0.83 0.246,0.614 0.184,0.584 0.123,0.492 0.062,0.215 0.153,0.093 0.369,-0.123 0.246,-0.339 0.247,-0.768 0.429,-1.322 0.277,-0.799 0.43,-1.045 0.246,-0.768 0.369,-1.168 0.338,-1.014 0.308,-1.199 0.522,-1.536 0.369,-1.415 0.277,-0.83 0.338,-0.338 0.584,-0.061 0.583,0.123 0.646,0.154 1.076,0.215 0.799,0.553 0,0.399 -0.522,0.246 -1.046,0.031 -1.137,-0.031 -0.184,0.954 c -0.826,2.768 -1.133,6.319 -1.691,9.251 l -0.184,0.43"
         style="fill:#000000;fill-opacity:1;fill-rule:nonzero;stroke:none"
         id="path5351"
         inkscape:connector-curvature="0" />
    </g>
    <g
       id="g5353"
       transform="matrix(15.996788,0,0,-15.996788,-1189.1317,1144.7174)">
      <path
         d="m 0,0 -0.277,0.983 -0.092,0.861 0.031,1.076 0.031,0.86 0.153,0.646 0.123,0.215 L 0.123,4.58 0.891,3.319 1.414,2.551 2.09,1.66 2.797,0.83 3.903,0.461 4.979,0.338 5.778,0.215 6.27,0.307 6.639,0.676 6.762,1.014 6.608,1.414 6.147,1.567 5.195,1.66 4.702,2.213 4.026,2.889 3.412,3.657 2.92,4.487 2.551,5.563 2.182,7.069 1.783,7.93 1.199,8.667 0.492,9.344 0.184,9.958 c -0.336,0.545 0.282,1.103 0.616,1.445 l 0.337,0.307 0.247,0.83 0.061,0.461 -0.277,0.891 -0.676,0.523 -0.922,0.092 -0.646,0 -1.106,-0.737 -0.092,-0.646 0,-0.43 0.122,-0.646 0.123,-0.399 c 0.662,-1.31 0.358,-1.176 -1.106,-1.783 L -3.873,9.589 -4.457,9.374 -5.194,8.944 -5.871,8.421 -6.608,7.807 -7.161,7.1 -7.807,6.147 -8.514,4.149 -8.698,3.412 -8.76,2.705 -8.821,2.151 -8.852,1.567 -8.883,1.014 l 0.185,-0.768 0.215,-0.123 0.338,-0.492 0.246,-0.184 0.276,-0.123 0.216,0.03 0.092,0.461 c -0.672,2.232 0.212,4.445 1.598,6.178 l 0.307,0.093 0.093,-0.308 0.03,-0.737 C -5.421,2.062 -5.881,1.145 -6.455,-1.506 L -7.192,-2.92 c -1.159,-2.101 -2.609,-4.044 -4.334,-5.717 l -0.369,-0.246 -0.154,-0.154 0.339,-0.891 0.276,-0.338 0.369,-0.522 0.246,-0.4 0.277,-0.4 0.215,-0.338 0.184,-0.307 0.338,-0.154 0.277,0.062 0.154,0.246 0.03,0.584 -0.092,0.645 -0.277,0.891 0.062,0.554 0.277,0.399 0.522,0.585 0.615,0.675 0.553,0.431 0.43,0.461 0.461,0.553 0.492,0.584 0.707,0.861 0.553,0.584 0.461,0.553 0.492,0.83 0.246,0.614 0.184,0.584 0.123,0.492 0.062,0.215 0.153,0.093 0.369,-0.123 0.246,-0.339 0.247,-0.768 0.429,-1.322 0.277,-0.799 0.43,-1.045 0.246,-0.768 0.369,-1.168 0.338,-1.014 0.308,-1.199 0.522,-1.536 0.369,-1.415 0.277,-0.83 0.338,-0.338 0.584,-0.061 0.583,0.123 0.646,0.154 1.076,0.215 0.799,0.553 0,0.399 -0.522,0.246 -1.046,0.031 -1.137,-0.031 -0.184,0.954 C 1.418,-8.204 1.111,-4.653 0.553,-1.721 L 0.369,-1.291 0,0 z"
         style="fill:none;stroke:#231f20;stroke-width:0.005001;stroke-linecap:butt;stroke-linejoin:miter;stroke-miterlimit:4;stroke-opacity:1;stroke-dasharray:none"
         id="path5355"
         inkscape:connector-curvature="0" />
    </g>
    <g
       id="g5357"
       transform="matrix(15.996788,0,0,-15.996788,-1464.9649,958.80272)">
      <path
         d="m 0,0 3.117,3.117 29.026,-29.044 -3.118,-3.117"
         style="fill:#d40000;fill-opacity:1;fill-rule:nonzero;stroke:none"
         id="path5359"
         inkscape:connector-curvature="0" />
    </g>
  </g>
</svg>
